<svg xmlns="http://www.w3.org/2000/svg" xmlns:xlink="http://www.w3.org/1999/xlink" preserveAspectRatio="xMidYMid" width="29" height="25" viewBox="0 0 29 25">
  <defs>
    <style>
      .cls-1 {
        fill: #0074be;
        fill-rule: evenodd;
      }
    </style>
  </defs>
  <path d="M28.786,23.320 L15.413,0.566 C15.225,0.241 14.875,-0.000 14.500,-0.000 C14.118,-0.000 13.769,0.241 13.587,0.566 L0.214,23.320 C0.032,23.646 -0.097,24.167 0.091,24.486 C0.278,24.805 0.621,25.000 0.997,25.000 L27.997,25.000 C28.372,25.000 28.715,24.805 28.903,24.486 C29.097,24.167 28.968,23.639 28.786,23.320 ZM15.743,21.875 L13.257,21.875 L13.257,18.750 L15.743,18.750 L15.743,21.875 ZM15.743,16.667 L13.257,16.667 L13.257,7.292 L15.743,7.292 L15.743,16.667 Z" class="cls-1"/>
</svg>
