<svg xmlns="http://www.w3.org/2000/svg" xmlns:xlink="http://www.w3.org/1999/xlink" preserveAspectRatio="xMidYMid" width="49.5" height="35.25" viewBox="0 0 49.5 35.25">
  <defs>
    <style>
      .cls-1 {
        fill: #fff;
        fill-rule: evenodd;
      }
    </style>
  </defs>
  <path d="M3.536,7.050 L45.964,7.050 C47.916,7.050 49.500,5.471 49.500,3.525 C49.500,1.579 47.916,-0.000 45.964,-0.000 L3.536,-0.000 C1.584,-0.000 -0.000,1.579 -0.000,3.525 C-0.000,5.471 1.584,7.050 3.536,7.050 ZM45.964,14.100 L3.536,14.100 C1.584,14.100 -0.000,15.679 -0.000,17.625 C-0.000,19.571 1.584,21.150 3.536,21.150 L45.964,21.150 C47.916,21.150 49.500,19.571 49.500,17.625 C49.500,15.679 47.916,14.100 45.964,14.100 ZM45.964,28.200 L3.536,28.200 C1.584,28.200 -0.000,29.779 -0.000,31.725 C-0.000,33.671 1.584,35.250 3.536,35.250 L45.964,35.250 C47.916,35.250 49.500,33.671 49.500,31.725 C49.500,29.779 47.916,28.200 45.964,28.200 Z" class="cls-1"/>
</svg>
