<svg xmlns="http://www.w3.org/2000/svg" width="665" height="457" viewBox="0 0 665 457">
  <defs>
    <style>
      .cls-1 {
        fill: #fff;
        fill-rule: evenodd;
      }
    </style>
  </defs>
  <path id="large_bear.svg" class="cls-1" d="M2268.51,1432.01h-99.89c-4.37-26.83,23.27-17.23,31.98-31.25-4.32-10.47-9.29-22.48-14.57-35.29h9.07c-0.97-2.05-1.41-3.74-2.41-4.96-9.15-11.21-17.44-23.34-27.8-33.29-22.74-21.83-20.1-47.12-11.98-73.49,4.92-15.96,10.62-31.68,12.64-49.27-9.91,15.14-22.77,29.16-28.93,45.72-6.18,16.61-5.68,35.74-8.46,56.31-27.18-1.66-55.77-2.97-84.22-5.73-3.49-.34-7.55-8.09-9.09-13.11-7.75-25.25-14.75-50.73-23.87-75.91,11.37,72.97,12.52,145.72.43,219.46H1911.8c14.99-12.83,26.38-22.57,39.96-34.18-14.98-38.15-30.14-80.67-48.61-121.67-6.66-14.78-21.49-25.75-32.21-38.77-18.37-22.31-36-45.26-54.95-67.04-4.76-5.47-13.14-10-20.29-10.73-39.37-4.06-78.92-6.29-118.3-10.23-17.42-1.74-24.93-16.24-34.66-29.25-16.94-22.65,1.88-29.17,14.49-37.74,14.23-9.68,29.89-17.23,44.93-25.71q1.215,1.935,2.44,3.87c0.13-1.12.81-2.72,0.31-3.28-16.48-18.64-16.49-18.63,4.69-32.19,6.08-3.89,11.78-8.69,18.33-11.42,5.74-2.4,12.43-2.48,19.51-3.73,1.46-8.22,3.49-19.684,5.52-31.152q3.195-1.485,6.38-2.972,18.66,15.041,37.19,29.984c0-.04.88-3.49,1.97-7.783,48.78,6.383,97.52,12.373,146.1,19.523,7.62,1.12,15.34,6.5,21.52,11.71,23.43,19.78,46.24,40.29,72.03,59.09-5.84-15.16-11.67-30.32-17.85-46.4,30.93-3.88,60.58-8,90.34-11.03,6.71-.69,14.35,1.19,20.62,4.01,27.91,12.54,55.75,25.35,83.02,39.24,6.7,3.41,13.39,10.31,16.32,17.22,22.86,53.79,44.88,107.95,66.87,162.12,2.18,5.38,4.29,11.92,3.26,17.31C2290.42,1323.82,2279.45,1377.51,2268.51,1432.01Zm-462.12-10.69c14.9-8.57,29.8-17.14,47.33-27.21-17.84-56.49-33.61-115.37-30.27-179.43,36.23,35.09,71.95,69.42,81.1,120.24,3.48,19.32-2.96,40.47-4.97,60.77-0.48,4.79-2.11,9.57-1.9,14.29,0.58,13.06-4.51,18.12-18.02,17.56-23.64-.98-47.35-0.27-71.03-0.27C1807.88,1425.29,1807.14,1423.3,1806.39,1421.32Zm228.95,9.97c5.88-8.57,8.49-14.49,12.88-18.41,18.31-16.35,25.07-43.27,16.05-67.46-2.91-7.83-6.06-15.57-9.9-25.38,27.97,1.63,53.93,3.14,80.82,4.71-3.66,35.01-6.21,68.78-26.49,97.47-3.15,4.45-10.06,8.32-15.46,8.67C2075.92,1431.98,2058.49,1431.29,2035.34,1431.29Z" transform="translate(-1636 -975)"/>
</svg>
